# xmcd
#
# Track frame offsets: 
#        150
#        12752
#        34599
#        54225
#        72816
#        96082
#        119305
#        132314
#        153978
#        167945
#        190349
#        210890
#        232570
#
# Disc length: 3350 seconds
#
# Revision: 0
# Processed by: cddbd v1.5.2PL0 Copyright (c) Steve Scherf et al.
# Submitted via: ExactAudioCopy v1.0b1
#
DISCID=990d140d
DTITLE=江智民、周虹 - 心裏永遠有你
DYEAR=2012
DGENRE=國語流行曲
TTITLE0=你是我心内的一首歌
TTITLE1=飛蛾撲火
TTITLE2=在心裏從此永遠有個你
TTITLE3=車站
TTITLE4=我不後悔
TTITLE5=不値得
TTITLE6=花開花落
TTITLE7=我要用心的告訴你
TTITLE8=萍聚
TTITLE9=曾經最美
TTITLE10=冰吻
TTITLE11=為愛放棄自由
TTITLE12=下輩子也要找到你
EXTD=
EXTT0=
EXTT1=
EXTT2=
EXTT3=
EXTT4=
EXTT5=
EXTT6=
EXTT7=
EXTT8=
EXTT9=
EXTT10=
EXTT11=
EXTT12=
PLAYORDER=
